Coordinates
version=1
nRows=17
nColumns=40
inDegrees=yes

Units are S.I. units (second, meters, Newtons, ...)
Angles are in degrees.

endheader
time	pelvis_tilt	pelvis_list	pelvis_rotation	pelvis_tx	pelvis_ty	pelvis_tz	hip_flexion_r	hip_adduction_r	hip_rotation_r	knee_angle_r	knee_angle_r_beta	ankle_angle_r	subtalar_angle_r	mtp_angle_r	hip_flexion_l	hip_adduction_l	hip_rotation_l	knee_angle_l	knee_angle_l_beta	ankle_angle_l	subtalar_angle_l	mtp_angle_l	lumbar_extension	lumbar_bending	lumbar_rotation	arm_flex_r	arm_add_r	arm_rot_r	elbow_flex_r	pro_sup_r	wrist_flex_r	wrist_dev_r	arm_flex_l	arm_add_l	arm_rot_l	elbow_flex_l	pro_sup_l	wrist_flex_l	wrist_dev_l
     17.70800000	     -6.87748079	     -4.32050155	      1.95704818	      0.80942684	      0.92695178	      0.51498094	     14.47564471	      3.84933114	    -13.30962232	     16.97933339	     16.97933339	     11.20746331	     -2.61476586	     -2.34271256	     35.17710991	     -9.54498933	      3.20285360	     39.61596457	     39.61596457	     11.54068284	    -18.12595261	     15.54852978	    -10.50857791	      5.49007973	      1.07935146	     32.49956613	    -16.10336391	      0.95036565	     75.88556112	     44.58858848	      0.00000000	      0.00000000	      0.06814831	     -6.78328350	     -1.77548100	     25.15995567	     46.05076192	      0.00000000	      0.00000000
     17.72100000	     -6.95393886	     -4.34579825	      2.39081678	      0.80858333	      0.92683192	      0.51458951	     13.97474267	      3.79457776	    -13.91137560	     16.67915284	     16.67915284	     11.46023920	     -2.06634178	     -2.70882623	     35.27004262	     -9.03575341	      3.41114379	     36.23511819	     36.23511819	     10.48236938	    -17.47587930	     12.45132300	    -10.50730466	      5.59004722	      1.61494017	     33.28336053	    -16.59214074	     -0.22353635	     79.26061072	     44.56423351	      0.00000000	      0.00000000	     -0.84961182	     -6.81938780	     -0.95823345	     26.03902454	     45.86492664	      0.00000000	      0.00000000
     17.73400000	     -7.00398628	     -4.34115542	      2.78362441	      0.80775197	      0.92683833	      0.51418701	     13.41355951	      3.79464007	    -14.13677343	     16.28790452	     16.28790452	     11.70046820	     -2.02891278	     -2.76188161	     35.38223190	     -8.49737518	      3.64756779	     33.24123189	     33.24123189	     10.54937966	    -16.30187985	     12.25916576	    -10.43619305	      5.63693461	      1.59032125	     34.95219682	    -16.58345685	     -0.61126486	     80.28428932	     44.56074556	      0.00000000	      0.00000000	     -1.57465348	     -6.81423890	     -0.69469741	     25.83720573	     45.80394446	      0.00000000	      0.00000000
     17.74700000	     -7.04403298	     -4.38281198	      3.18854443	      0.80709907	      0.92679975	      0.51365815	     12.77980022	      3.80480571	    -14.66918512	     15.82581254	     15.82581254	     11.90729773	     -1.55038924	     -3.03657574	     35.43199517	     -8.07499828	      3.70105618	     30.37562611	     30.37562611	     10.05756298	    -14.93600408	     10.46779645	    -10.36215108	      5.74675711	      1.71749209	     36.20649049	    -16.56900612	     -1.42336414	     81.83610460	     44.58410893	      0.00000000	      0.00000000	     -2.59695049	     -6.97535386	      0.25534048	     26.66655361	     45.60818197	      0.00000000	      0.00000000
     17.76000000	     -7.21449564	     -4.48439583	      3.55757626	      0.80633138	      0.92657775	      0.51310124	     12.37738900	      3.90495359	    -14.90133538	     15.48664397	     15.48664397	     12.09950036	     -1.50847951	     -3.07288039	     35.71071068	     -7.68923320	      3.84348950	     27.95500905	     27.95500905	     10.09222740	    -13.58224147	     10.63385760	    -10.06297541	      5.92110230	      1.86122895	     37.70971143	    -16.80997003	     -1.73250029	     82.52977622	     44.58187114	      0.00000000	      0.00000000	     -3.20836950	     -6.90175020	      0.35560019	     26.55504827	     45.58030772	      0.00000000	      0.00000000
     17.77300000	     -7.15322127	     -4.46486314	      3.84889201	      0.80599130	      0.92681743	      0.51252839	     11.47101863	      3.94215262	    -15.19056917	     14.74005891	     14.74005891	     12.28807244	     -1.05122389	     -3.09302896	     35.59749749	     -7.33162153	      3.58080392	     25.72193450	     25.72193450	     10.24929414	    -12.07989063	     10.57359284	    -10.11655159	      5.92280015	      1.84854180	     38.84070928	    -16.57568850	     -2.04316386	     83.50042612	     44.57256206	      0.00000000	      0.00000000	     -3.97915948	     -6.96981337	      0.51945264	     26.66308403	     45.53682874	      0.00000000	      0.00000000
     17.78600000	     -7.08858381	     -4.58864460	      4.12847702	      0.80579968	      0.92694471	      0.51196270	     10.51417120	      4.13703879	    -15.64805519	     13.90240797	     13.90240797	     12.41180019	     -0.34609405	     -3.17345703	     35.55370013	     -7.16041031	      3.24786756	     23.91205608	     23.91205608	     10.27758288	    -10.71445569	     10.38163870	    -10.13339736	      6.06133925	      1.86556116	     39.87427806	    -16.41593368	     -2.57805244	     84.52724895	     44.57310709	      0.00000000	      0.00000000	     -4.88177215	     -7.05211163	      0.76052708	     27.19112558	     45.47594096	      0.00000000	      0.00000000
     17.79900000	     -7.23847190	     -4.76221416	      4.36998539	      0.80544194	      0.92656252	      0.51127071	     10.02501118	      4.33384126	    -15.87020419	     13.48198658	     13.48198658	     12.58566123	     -0.11217511	     -3.23245945	     35.80701848	     -6.98996037	      3.04863246	     22.53134204	     22.53134204	     10.17606244	     -9.97438924	     10.49813367	     -9.83700737	      6.30211780	      2.08205728	     40.90769163	    -16.57044884	     -2.90368139	     85.04272835	     44.57586832	      0.00000000	      0.00000000	     -5.47215479	     -7.00220743	      0.84715714	     27.34432652	     45.44979158	      0.00000000	      0.00000000
     17.81200000	     -7.07683106	     -4.85644914	      4.55914708	      0.80566065	      0.92679701	      0.51060831	      8.81859785	      4.55387513	    -16.23868172	     12.41164056	     12.41164056	     12.64981248	      0.78962885	     -3.27854071	     35.52728229	     -6.88048567	      2.54386135	     21.26748041	     21.26748041	     10.03626397	     -9.20568697	     10.48404235	     -9.92548619	      6.41064412	      2.15606073	     41.55299591	    -16.31500437	     -3.42098860	     85.84521589	     44.58101426	      0.00000000	      0.00000000	     -6.33713063	     -7.11163032	      1.06400547	     28.04484392	     45.39548852	      0.00000000	      0.00000000
     17.82500000	     -7.04365816	     -5.04258821	      4.68119196	      0.80589791	      0.92658412	      0.50995176	      7.88523913	      4.83940624	    -16.58414182	     11.58539940	     11.58539940	     12.73905110	      1.55636475	     -3.39022354	     35.42450143	     -6.88108125	      2.08661990	     20.41522609	     20.41522609	      9.82865169	     -8.81775292	     10.43118333	     -9.81352943	      6.60430697	      2.31075908	     42.16378088	    -16.21506297	     -3.95396903	     86.44986795	     44.59510525	      0.00000000	      0.00000000	     -7.14408264	     -7.18024271	      1.34196730	     28.84646364	     45.33582342	      0.00000000	      0.00000000
     17.83800000	     -7.01637343	     -5.23449807	      4.74953710	      0.80629241	      0.92620922	      0.50926800	      7.01409122	      5.12471300	    -16.76242470	     10.88964323	     10.88964323	     12.87877675	      2.17258296	     -3.45220836	     35.26714162	     -6.92254443	      1.67041120	     19.81600377	     19.81600377	      9.51232258	     -8.62029454	     10.47084105	     -9.64824987	      6.81488151	      2.50277005	     42.64302647	    -16.14955757	     -4.28722949	     86.82723031	     44.60553764	      0.00000000	      0.00000000	     -7.80528849	     -7.21859781	      1.54272215	     29.31302775	     45.29422567	      0.00000000	      0.00000000
     17.85100000	     -6.94400386	     -5.46463441	      4.77005839	      0.80698134	      0.92570910	      0.50861317	      6.03950073	      5.46471888	    -17.00030157	     10.13036319	     10.13036319	     13.04243648	      2.96740662	     -3.51673924	     35.03222200	     -7.05677558	      1.25030282	     19.51893852	     19.51893852	      9.14720793	     -8.53917944	     10.33780105	     -9.53453855	      7.01973956	      2.67625365	     42.92841829	    -16.03349112	     -4.65900987	     87.13887056	     44.62149482	      0.00000000	      0.00000000	     -8.51297859	     -7.26700113	      1.79344177	     29.92431321	     45.24675443	      0.00000000	      0.00000000
     17.86400000	     -6.88388033	     -5.70373761	      4.73238557	      0.80780128	      0.92502267	      0.50794974	      5.15718354	      5.77901773	    -17.24096175	      9.54191760	      9.54191760	     13.26770503	      3.80236027	     -3.58443541	     34.73752733	     -7.25445910	      0.83690457	     19.38672777	     19.38672777	      8.60350669	     -8.48958931	      9.91715439	     -9.38425478	      7.21313380	      2.84534678	     43.06850159	    -15.88629513	     -5.04669310	     87.34559072	     44.64739438	      0.00000000	      0.00000000	     -9.22763569	     -7.33276186	      2.16700417	     30.71128636	     45.18707675	      0.00000000	      0.00000000
     17.87700000	     -6.81735334	     -5.93636021	      4.65090926	      0.80874737	      0.92419942	      0.50720647	      4.31906749	      6.07923076	    -17.30569387	      9.06861648	      9.06861648	     13.53398038	      4.44898708	     -3.57073814	     34.34367901	     -7.46639520	      0.50424601	     19.34639713	     19.34639713	      8.01477261	     -8.46159556	      9.59155181	     -9.19398453	      7.43746108	      3.00447873	     43.09432675	    -15.79832549	     -5.26012703	     87.38928651	     44.66716033	      0.00000000	      0.00000000	     -9.74674261	     -7.34740443	      2.41643855	     31.08205625	     45.15079996	      0.00000000	      0.00000000
     17.89000000	     -6.74753482	     -6.18347379	      4.52362116	      0.80985286	      0.92321216	      0.50646340	      3.56411564	      6.34149416	    -17.48717359	      8.81490595	      8.81490595	     13.97698969	      5.26636233	     -3.42581914	     33.88392206	     -7.74416024	      0.12519480	     19.35856290	     19.35856290	      7.03543783	     -8.43448335	      8.39440724	     -9.02348717	      7.62302595	      3.12734141	     42.96343134	    -15.59709893	     -5.61597681	     87.32434742	     44.71210940	      0.00000000	      0.00000000	    -10.36873804	     -7.45784300	      2.88832254	     31.74665516	     45.09703147	      0.00000000	      0.00000000
     17.90300000	     -6.73048050	     -6.38727973	      4.34878331	      0.81097832	      0.92208667	      0.50565965	      2.99307624	      6.53280420	    -17.31012300	      8.80347826	      8.80347826	     14.36072920	      5.47303963	     -3.52904293	     33.48838970	     -7.96752996	     -0.08453738	     19.56941964	     19.56941964	      6.49025973	     -8.49663867	      8.47224192	     -8.78241416	      7.77433162	      3.26221743	     42.64367429	    -15.53322074	     -5.61147500	     87.21635163	     44.71673598	      0.00000000	      0.00000000	    -10.68208590	     -7.37140055	      2.92512856	     31.68738332	     45.08935433	      0.00000000	      0.00000000
     17.91600000	     -6.68789331	     -6.57176928	      4.19318821	      0.81214759	      0.92095803	      0.50477591	      2.36389790	      6.70224868	    -17.23083336	      8.74033286	      8.74033286	     14.76991330	      5.76911834	     -3.57810134	     33.08213558	     -8.17944403	     -0.27332016	     19.87520022	     19.87520022	      5.88249987	     -8.49034070	      8.34688341	     -8.61025115	      7.85946170	      3.33733614	     42.18900341	    -15.46095347	     -5.67964165	     86.98779817	     44.72815323	      0.00000000	      0.00000000	    -10.87256632	     -7.32711289	      2.95519999	     31.69183491	     45.08541516	      0.00000000	      0.00000000
